<?xml version="1.0" encoding="utf-8" standalone="no"?>
<!DOCTYPE svg PUBLIC "-//W3C//DTD SVG 1.1//EN"
  "http://www.w3.org/Graphics/SVG/1.1/DTD/svg11.dtd">
<svg xmlns:xlink="http://www.w3.org/1999/xlink" width="576pt" height="360pt" viewBox="0 0 576 360" xmlns="http://www.w3.org/2000/svg" version="1.1">
 <metadata>
  <rdf:RDF xmlns:dc="http://purl.org/dc/elements/1.1/" xmlns:cc="http://creativecommons.org/ns#" xmlns:rdf="http://www.w3.org/1999/02/22-rdf-syntax-ns#">
   <cc:Work>
    <dc:type rdf:resource="http://purl.org/dc/dcmitype/StillImage"/>
    <dc:date>2026-07-10T12:31:57.149361</dc:date>
    <dc:format>image/svg+xml</dc:format>
    <dc:creator>
     <cc:Agent>
      <dc:title>Matplotlib v3.11.0, https://matplotlib.org/</dc:title>
     </cc:Agent>
    </dc:creator>
   </cc:Work>
  </rdf:RDF>
 </metadata>
 <defs>
  <style type="text/css">*{stroke-linejoin: round; stroke-linecap: butt}</style>
 </defs>
 <g id="figure_1">
  <g id="patch_1">
   <path d="M 0 360 
L 576 360 
L 576 0 
L 0 0 
z
" style="fill: #ffffff"/>
  </g>
  <g id="axes_1">
   <g id="patch_2">
    <path d="M 51.562344 317.877656 
L 557.28 317.877656 
L 557.28 26.16 
L 51.562344 26.16 
z
" style="fill: #ffffff"/>
   </g>
   <g id="matplotlib.axis_1">
    <g id="xtick_1">
     <g id="line2d_1">
      <defs>
       <path id="m61d08a536f" d="M 0 0 
L 0 3.5 
" style="stroke: #000000; stroke-width: 0.8"/>
      </defs>
      <g>
       <use xlink:href="#m61d08a536f" x="51.562344" y="317.877656" style="stroke: #000000; stroke-width: 0.8"/>
      </g>
     </g>
     <g id="text_1">
      <!-- 0.0 -->
      <g transform="translate(43.610781 332.475312) scale(0.1 -0.1)">
       <defs>
        <path id="DejaVuSans-13" d="M 2034 4250 
Q 1547 4250 1301 3770 
Q 1056 3291 1056 2328 
Q 1056 1369 1301 889 
Q 1547 409 2034 409 
Q 2525 409 2770 889 
Q 3016 1369 3016 2328 
Q 3016 3291 2770 3770 
Q 2525 4250 2034 4250 
z
M 2034 4750 
Q 2819 4750 3233 4129 
Q 3647 3509 3647 2328 
Q 3647 1150 3233 529 
Q 2819 -91 2034 -91 
Q 1250 -91 836 529 
Q 422 1150 422 2328 
Q 422 3509 836 4129 
Q 1250 4750 2034 4750 
z
" transform="scale(0.015625)"/>
        <path id="DejaVuSans-11" d="M 684 794 
L 1344 794 
L 1344 0 
L 684 0 
L 684 794 
z
" transform="scale(0.015625)"/>
       </defs>
       <use xlink:href="#DejaVuSans-13"/>
       <use xlink:href="#DejaVuSans-11" transform="translate(63.625 0)"/>
       <use xlink:href="#DejaVuSans-13" transform="translate(95.40625 0)"/>
      </g>
     </g>
    </g>
    <g id="xtick_2">
     <g id="line2d_2">
      <g>
       <use xlink:href="#m61d08a536f" x="152.705875" y="317.877656" style="stroke: #000000; stroke-width: 0.8"/>
      </g>
     </g>
     <g id="text_2">
      <!-- 0.2 -->
      <g transform="translate(144.754312 332.475312) scale(0.1 -0.1)">
       <defs>
        <path id="DejaVuSans-15" d="M 1228 531 
L 3431 531 
L 3431 0 
L 469 0 
L 469 531 
Q 828 903 1448 1529 
Q 2069 2156 2228 2338 
Q 2531 2678 2651 2914 
Q 2772 3150 2772 3378 
Q 2772 3750 2511 3984 
Q 2250 4219 1831 4219 
Q 1534 4219 1204 4116 
Q 875 4013 500 3803 
L 500 4441 
Q 881 4594 1212 4672 
Q 1544 4750 1819 4750 
Q 2544 4750 2975 4387 
Q 3406 4025 3406 3419 
Q 3406 3131 3298 2873 
Q 3191 2616 2906 2266 
Q 2828 2175 2409 1742 
Q 1991 1309 1228 531 
z
" transform="scale(0.015625)"/>
       </defs>
       <use xlink:href="#DejaVuSans-13"/>
       <use xlink:href="#DejaVuSans-11" transform="translate(63.625 0)"/>
       <use xlink:href="#DejaVuSans-15" transform="translate(95.40625 0)"/>
      </g>
     </g>
    </g>
    <g id="xtick_3">
     <g id="line2d_3">
      <g>
       <use xlink:href="#m61d08a536f" x="253.849406" y="317.877656" style="stroke: #000000; stroke-width: 0.8"/>
      </g>
     </g>
     <g id="text_3">
      <!-- 0.4 -->
      <g transform="translate(245.897844 332.475312) scale(0.1 -0.1)">
       <defs>
        <path id="DejaVuSans-17" d="M 2419 4116 
L 825 1625 
L 2419 1625 
L 2419 4116 
z
M 2253 4666 
L 3047 4666 
L 3047 1625 
L 3713 1625 
L 3713 1100 
L 3047 1100 
L 3047 0 
L 2419 0 
L 2419 1100 
L 313 1100 
L 313 1709 
L 2253 4666 
z
" transform="scale(0.015625)"/>
       </defs>
       <use xlink:href="#DejaVuSans-13"/>
       <use xlink:href="#DejaVuSans-11" transform="translate(63.625 0)"/>
       <use xlink:href="#DejaVuSans-17" transform="translate(95.40625 0)"/>
      </g>
     </g>
    </g>
    <g id="xtick_4">
     <g id="line2d_4">
      <g>
       <use xlink:href="#m61d08a536f" x="354.992938" y="317.877656" style="stroke: #000000; stroke-width: 0.8"/>
      </g>
     </g>
     <g id="text_4">
      <!-- 0.6 -->
      <g transform="translate(347.041375 332.475312) scale(0.1 -0.1)">
       <defs>
        <path id="DejaVuSans-19" d="M 2113 2584 
Q 1688 2584 1439 2293 
Q 1191 2003 1191 1497 
Q 1191 994 1439 701 
Q 1688 409 2113 409 
Q 2538 409 2786 701 
Q 3034 994 3034 1497 
Q 3034 2003 2786 2293 
Q 2538 2584 2113 2584 
z
M 3366 4563 
L 3366 3988 
Q 3128 4100 2886 4159 
Q 2644 4219 2406 4219 
Q 1781 4219 1451 3797 
Q 1122 3375 1075 2522 
Q 1259 2794 1537 2939 
Q 1816 3084 2150 3084 
Q 2853 3084 3261 2657 
Q 3669 2231 3669 1497 
Q 3669 778 3244 343 
Q 2819 -91 2113 -91 
Q 1303 -91 875 529 
Q 447 1150 447 2328 
Q 447 3434 972 4092 
Q 1497 4750 2381 4750 
Q 2619 4750 2861 4703 
Q 3103 4656 3366 4563 
z
" transform="scale(0.015625)"/>
       </defs>
       <use xlink:href="#DejaVuSans-13"/>
       <use xlink:href="#DejaVuSans-11" transform="translate(63.625 0)"/>
       <use xlink:href="#DejaVuSans-19" transform="translate(95.40625 0)"/>
      </g>
     </g>
    </g>
    <g id="xtick_5">
     <g id="line2d_5">
      <g>
       <use xlink:href="#m61d08a536f" x="456.136469" y="317.877656" style="stroke: #000000; stroke-width: 0.8"/>
      </g>
     </g>
     <g id="text_5">
      <!-- 0.8 -->
      <g transform="translate(448.184906 332.475312) scale(0.1 -0.1)">
       <defs>
        <path id="DejaVuSans-1b" d="M 2034 2216 
Q 1584 2216 1326 1975 
Q 1069 1734 1069 1313 
Q 1069 891 1326 650 
Q 1584 409 2034 409 
Q 2484 409 2743 651 
Q 3003 894 3003 1313 
Q 3003 1734 2745 1975 
Q 2488 2216 2034 2216 
z
M 1403 2484 
Q 997 2584 770 2862 
Q 544 3141 544 3541 
Q 544 4100 942 4425 
Q 1341 4750 2034 4750 
Q 2731 4750 3128 4425 
Q 3525 4100 3525 3541 
Q 3525 3141 3298 2862 
Q 3072 2584 2669 2484 
Q 3125 2378 3379 2068 
Q 3634 1759 3634 1313 
Q 3634 634 3220 271 
Q 2806 -91 2034 -91 
Q 1263 -91 848 271 
Q 434 634 434 1313 
Q 434 1759 690 2068 
Q 947 2378 1403 2484 
z
M 1172 3481 
Q 1172 3119 1398 2916 
Q 1625 2713 2034 2713 
Q 2441 2713 2670 2916 
Q 2900 3119 2900 3481 
Q 2900 3844 2670 4047 
Q 2441 4250 2034 4250 
Q 1625 4250 1398 4047 
Q 1172 3844 1172 3481 
z
" transform="scale(0.015625)"/>
       </defs>
       <use xlink:href="#DejaVuSans-13"/>
       <use xlink:href="#DejaVuSans-11" transform="translate(63.625 0)"/>
       <use xlink:href="#DejaVuSans-1b" transform="translate(95.40625 0)"/>
      </g>
     </g>
    </g>
    <g id="xtick_6">
     <g id="line2d_6">
      <g>
       <use xlink:href="#m61d08a536f" x="557.28" y="317.877656" style="stroke: #000000; stroke-width: 0.8"/>
      </g>
     </g>
     <g id="text_6">
      <!-- 1.0 -->
      <g transform="translate(549.328437 332.475312) scale(0.1 -0.1)">
       <defs>
        <path id="DejaVuSans-14" d="M 794 531 
L 1825 531 
L 1825 4091 
L 703 3866 
L 703 4441 
L 1819 4666 
L 2450 4666 
L 2450 531 
L 3481 531 
L 3481 0 
L 794 0 
L 794 531 
z
" transform="scale(0.015625)"/>
       </defs>
       <use xlink:href="#DejaVuSans-14"/>
       <use xlink:href="#DejaVuSans-11" transform="translate(63.625 0)"/>
       <use xlink:href="#DejaVuSans-13" transform="translate(95.40625 0)"/>
      </g>
     </g>
    </g>
    <g id="text_7">
     <!-- Fraction of Structured Blocks -->
     <g transform="translate(232.315703 346.476094) scale(0.1 -0.1)">
      <defs>
       <path id="DejaVuSans-29" d="M 628 4666 
L 3309 4666 
L 3309 4134 
L 1259 4134 
L 1259 2759 
L 3109 2759 
L 3109 2228 
L 1259 2228 
L 1259 0 
L 628 0 
L 628 4666 
z
" transform="scale(0.015625)"/>
       <path id="DejaVuSans-55" d="M 2631 2963 
Q 2534 3019 2420 3045 
Q 2306 3072 2169 3072 
Q 1681 3072 1420 2755 
Q 1159 2438 1159 1844 
L 1159 0 
L 581 0 
L 581 3500 
L 1159 3500 
L 1159 2956 
Q 1341 3275 1631 3429 
Q 1922 3584 2338 3584 
Q 2397 3584 2469 3576 
Q 2541 3569 2628 3553 
L 2631 2963 
z
" transform="scale(0.015625)"/>
       <path id="DejaVuSans-44" d="M 2194 1759 
Q 1497 1759 1228 1600 
Q 959 1441 959 1056 
Q 959 750 1161 570 
Q 1363 391 1709 391 
Q 2188 391 2477 730 
Q 2766 1069 2766 1631 
L 2766 1759 
L 2194 1759 
z
M 3341 1997 
L 3341 0 
L 2766 0 
L 2766 531 
Q 2569 213 2275 61 
Q 1981 -91 1556 -91 
Q 1019 -91 701 211 
Q 384 513 384 1019 
Q 384 1609 779 1909 
Q 1175 2209 1959 2209 
L 2766 2209 
L 2766 2266 
Q 2766 2663 2505 2880 
Q 2244 3097 1772 3097 
Q 1472 3097 1187 3025 
Q 903 2953 641 2809 
L 641 3341 
Q 956 3463 1253 3523 
Q 1550 3584 1831 3584 
Q 2591 3584 2966 3190 
Q 3341 2797 3341 1997 
z
" transform="scale(0.015625)"/>
       <path id="DejaVuSans-46" d="M 3122 3366 
L 3122 2828 
Q 2878 2963 2633 3030 
Q 2388 3097 2138 3097 
Q 1578 3097 1268 2742 
Q 959 2388 959 1747 
Q 959 1106 1268 751 
Q 1578 397 2138 397 
Q 2388 397 2633 464 
Q 2878 531 3122 666 
L 3122 134 
Q 2881 22 2623 -34 
Q 2366 -91 2075 -91 
Q 1284 -91 818 406 
Q 353 903 353 1747 
Q 353 2603 823 3093 
Q 1294 3584 2113 3584 
Q 2378 3584 2631 3529 
Q 2884 3475 3122 3366 
z
" transform="scale(0.015625)"/>
       <path id="DejaVuSans-57" d="M 1172 4494 
L 1172 3500 
L 2356 3500 
L 2356 3053 
L 1172 3053 
L 1172 1153 
Q 1172 725 1289 603 
Q 1406 481 1766 481 
L 2356 481 
L 2356 0 
L 1766 0 
Q 1100 0 847 248 
Q 594 497 594 1153 
L 594 3053 
L 172 3053 
L 172 3500 
L 594 3500 
L 594 4494 
L 1172 4494 
z
" transform="scale(0.015625)"/>
       <path id="DejaVuSans-4c" d="M 603 3500 
L 1178 3500 
L 1178 0 
L 603 0 
L 603 3500 
z
M 603 4863 
L 1178 4863 
L 1178 4134 
L 603 4134 
L 603 4863 
z
" transform="scale(0.015625)"/>
       <path id="DejaVuSans-52" d="M 1959 3097 
Q 1497 3097 1228 2736 
Q 959 2375 959 1747 
Q 959 1119 1226 758 
Q 1494 397 1959 397 
Q 2419 397 2687 759 
Q 2956 1122 2956 1747 
Q 2956 2369 2687 2733 
Q 2419 3097 1959 3097 
z
M 1959 3584 
Q 2709 3584 3137 3096 
Q 3566 2609 3566 1747 
Q 3566 888 3137 398 
Q 2709 -91 1959 -91 
Q 1206 -91 779 398 
Q 353 888 353 1747 
Q 353 2609 779 3096 
Q 1206 3584 1959 3584 
z
" transform="scale(0.015625)"/>
       <path id="DejaVuSans-51" d="M 3513 2113 
L 3513 0 
L 2938 0 
L 2938 2094 
Q 2938 2591 2744 2837 
Q 2550 3084 2163 3084 
Q 1697 3084 1428 2787 
Q 1159 2491 1159 1978 
L 1159 0 
L 581 0 
L 581 3500 
L 1159 3500 
L 1159 2956 
Q 1366 3272 1645 3428 
Q 1925 3584 2291 3584 
Q 2894 3584 3203 3211 
Q 3513 2838 3513 2113 
z
" transform="scale(0.015625)"/>
       <path id="DejaVuSans-3" transform="scale(0.015625)"/>
       <path id="DejaVuSans-49" d="M 2375 4863 
L 2375 4384 
L 1825 4384 
Q 1516 4384 1395 4259 
Q 1275 4134 1275 3809 
L 1275 3500 
L 2222 3500 
L 2222 3053 
L 1275 3053 
L 1275 0 
L 697 0 
L 697 3053 
L 147 3053 
L 147 3500 
L 697 3500 
L 697 3744 
Q 697 4328 969 4595 
Q 1241 4863 1831 4863 
L 2375 4863 
z
" transform="scale(0.015625)"/>
       <path id="DejaVuSans-36" d="M 3425 4513 
L 3425 3897 
Q 3066 4069 2747 4153 
Q 2428 4238 2131 4238 
Q 1616 4238 1336 4038 
Q 1056 3838 1056 3469 
Q 1056 3159 1242 3001 
Q 1428 2844 1947 2747 
L 2328 2669 
Q 3034 2534 3370 2195 
Q 3706 1856 3706 1288 
Q 3706 609 3251 259 
Q 2797 -91 1919 -91 
Q 1588 -91 1214 -16 
Q 841 59 441 206 
L 441 856 
Q 825 641 1194 531 
Q 1563 422 1919 422 
Q 2459 422 2753 634 
Q 3047 847 3047 1241 
Q 3047 1584 2836 1778 
Q 2625 1972 2144 2069 
L 1759 2144 
Q 1053 2284 737 2584 
Q 422 2884 422 3419 
Q 422 4038 858 4394 
Q 1294 4750 2059 4750 
Q 2388 4750 2728 4690 
Q 3069 4631 3425 4513 
z
" transform="scale(0.015625)"/>
       <path id="DejaVuSans-58" d="M 544 1381 
L 544 3500 
L 1119 3500 
L 1119 1403 
Q 1119 906 1312 657 
Q 1506 409 1894 409 
Q 2359 409 2629 706 
Q 2900 1003 2900 1516 
L 2900 3500 
L 3475 3500 
L 3475 0 
L 2900 0 
L 2900 538 
Q 2691 219 2414 64 
Q 2138 -91 1772 -91 
Q 1169 -91 856 284 
Q 544 659 544 1381 
z
M 1991 3584 
L 1991 3584 
z
" transform="scale(0.015625)"/>
       <path id="DejaVuSans-48" d="M 3597 1894 
L 3597 1613 
L 953 1613 
Q 991 1019 1311 708 
Q 1631 397 2203 397 
Q 2534 397 2845 478 
Q 3156 559 3463 722 
L 3463 178 
Q 3153 47 2828 -22 
Q 2503 -91 2169 -91 
Q 1331 -91 842 396 
Q 353 884 353 1716 
Q 353 2575 817 3079 
Q 1281 3584 2069 3584 
Q 2775 3584 3186 3129 
Q 3597 2675 3597 1894 
z
M 3022 2063 
Q 3016 2534 2758 2815 
Q 2500 3097 2075 3097 
Q 1594 3097 1305 2825 
Q 1016 2553 972 2059 
L 3022 2063 
z
" transform="scale(0.015625)"/>
       <path id="DejaVuSans-47" d="M 2906 2969 
L 2906 4863 
L 3481 4863 
L 3481 0 
L 2906 0 
L 2906 525 
Q 2725 213 2448 61 
Q 2172 -91 1784 -91 
Q 1150 -91 751 415 
Q 353 922 353 1747 
Q 353 2572 751 3078 
Q 1150 3584 1784 3584 
Q 2172 3584 2448 3432 
Q 2725 3281 2906 2969 
z
M 947 1747 
Q 947 1113 1208 752 
Q 1469 391 1925 391 
Q 2381 391 2643 752 
Q 2906 1113 2906 1747 
Q 2906 2381 2643 2742 
Q 2381 3103 1925 3103 
Q 1469 3103 1208 2742 
Q 947 2381 947 1747 
z
" transform="scale(0.015625)"/>
       <path id="DejaVuSans-25" d="M 1259 2228 
L 1259 519 
L 2272 519 
Q 2781 519 3026 730 
Q 3272 941 3272 1375 
Q 3272 1813 3026 2020 
Q 2781 2228 2272 2228 
L 1259 2228 
z
M 1259 4147 
L 1259 2741 
L 2194 2741 
Q 2656 2741 2882 2914 
Q 3109 3088 3109 3444 
Q 3109 3797 2882 3972 
Q 2656 4147 2194 4147 
L 1259 4147 
z
M 628 4666 
L 2241 4666 
Q 2963 4666 3353 4366 
Q 3744 4066 3744 3513 
Q 3744 3084 3544 2831 
Q 3344 2578 2956 2516 
Q 3422 2416 3680 2098 
Q 3938 1781 3938 1306 
Q 3938 681 3513 340 
Q 3088 0 2303 0 
L 628 0 
L 628 4666 
z
" transform="scale(0.015625)"/>
       <path id="DejaVuSans-4f" d="M 603 4863 
L 1178 4863 
L 1178 0 
L 603 0 
L 603 4863 
z
" transform="scale(0.015625)"/>
       <path id="DejaVuSans-4e" d="M 581 4863 
L 1159 4863 
L 1159 1991 
L 2875 3500 
L 3609 3500 
L 1753 1863 
L 3688 0 
L 2938 0 
L 1159 1709 
L 1159 0 
L 581 0 
L 581 4863 
z
" transform="scale(0.015625)"/>
       <path id="DejaVuSans-56" d="M 2834 3397 
L 2834 2853 
Q 2591 2978 2328 3040 
Q 2066 3103 1784 3103 
Q 1356 3103 1142 2972 
Q 928 2841 928 2578 
Q 928 2378 1081 2264 
Q 1234 2150 1697 2047 
L 1894 2003 
Q 2506 1872 2764 1633 
Q 3022 1394 3022 966 
Q 3022 478 2636 193 
Q 2250 -91 1575 -91 
Q 1294 -91 989 -36 
Q 684 19 347 128 
L 347 722 
Q 666 556 975 473 
Q 1284 391 1588 391 
Q 1994 391 2212 530 
Q 2431 669 2431 922 
Q 2431 1156 2273 1281 
Q 2116 1406 1581 1522 
L 1381 1569 
Q 847 1681 609 1914 
Q 372 2147 372 2553 
Q 372 3047 722 3315 
Q 1072 3584 1716 3584 
Q 2034 3584 2315 3537 
Q 2597 3491 2834 3397 
z
" transform="scale(0.015625)"/>
      </defs>
      <use xlink:href="#DejaVuSans-29"/>
      <use xlink:href="#DejaVuSans-55" transform="translate(50.234375 0)"/>
      <use xlink:href="#DejaVuSans-44" transform="translate(91.34375 0)"/>
      <use xlink:href="#DejaVuSans-46" transform="translate(152.625 0)"/>
      <use xlink:href="#DejaVuSans-57" transform="translate(207.609375 0)"/>
      <use xlink:href="#DejaVuSans-4c" transform="translate(246.8125 0)"/>
      <use xlink:href="#DejaVuSans-52" transform="translate(274.59375 0)"/>
      <use xlink:href="#DejaVuSans-51" transform="translate(335.78125 0)"/>
      <use xlink:href="#DejaVuSans-3" transform="translate(399.15625 0)"/>
      <use xlink:href="#DejaVuSans-52" transform="translate(430.9375 0)"/>
      <use xlink:href="#DejaVuSans-49" transform="translate(492.125 0)"/>
      <use xlink:href="#DejaVuSans-3" transform="translate(527.328125 0)"/>
      <use xlink:href="#DejaVuSans-36" transform="translate(559.109375 0)"/>
      <use xlink:href="#DejaVuSans-57" transform="translate(622.59375 0)"/>
      <use xlink:href="#DejaVuSans-55" transform="translate(661.796875 0)"/>
      <use xlink:href="#DejaVuSans-58" transform="translate(702.90625 0)"/>
      <use xlink:href="#DejaVuSans-46" transform="translate(766.28125 0)"/>
      <use xlink:href="#DejaVuSans-57" transform="translate(821.265625 0)"/>
      <use xlink:href="#DejaVuSans-58" transform="translate(860.46875 0)"/>
      <use xlink:href="#DejaVuSans-55" transform="translate(923.84375 0)"/>
      <use xlink:href="#DejaVuSans-48" transform="translate(962.75 0)"/>
      <use xlink:href="#DejaVuSans-47" transform="translate(1024.28125 0)"/>
      <use xlink:href="#DejaVuSans-3" transform="translate(1087.765625 0)"/>
      <use xlink:href="#DejaVuSans-25" transform="translate(1119.546875 0)"/>
      <use xlink:href="#DejaVuSans-4f" transform="translate(1188.15625 0)"/>
      <use xlink:href="#DejaVuSans-52" transform="translate(1215.9375 0)"/>
      <use xlink:href="#DejaVuSans-46" transform="translate(1277.125 0)"/>
      <use xlink:href="#DejaVuSans-4e" transform="translate(1332.109375 0)"/>
      <use xlink:href="#DejaVuSans-56" transform="translate(1390.015625 0)"/>
     </g>
    </g>
   </g>
   <g id="matplotlib.axis_2">
    <g id="ytick_1">
     <g id="line2d_7">
      <defs>
       <path id="md04c617c74" d="M 0 0 
L -3.5 0 
" style="stroke: #000000; stroke-width: 0.8"/>
      </defs>
      <g>
       <use xlink:href="#md04c617c74" x="51.562344" y="310.202198" style="stroke: #000000; stroke-width: 0.8"/>
      </g>
     </g>
     <g id="text_8">
      <!-- 0 -->
      <g transform="translate(38.199844 314.001026) scale(0.1 -0.1)">
       <use xlink:href="#DejaVuSans-13"/>
      </g>
     </g>
    </g>
    <g id="ytick_2">
     <g id="line2d_8">
      <g>
       <use xlink:href="#md04c617c74" x="51.562344" y="272.183951" style="stroke: #000000; stroke-width: 0.8"/>
      </g>
     </g>
     <g id="text_9">
      <!-- 25 -->
      <g transform="translate(31.837344 275.982779) scale(0.1 -0.1)">
       <defs>
        <path id="DejaVuSans-18" d="M 691 4666 
L 3169 4666 
L 3169 4134 
L 1269 4134 
L 1269 2991 
Q 1406 3038 1543 3061 
Q 1681 3084 1819 3084 
Q 2600 3084 3056 2656 
Q 3513 2228 3513 1497 
Q 3513 744 3044 326 
Q 2575 -91 1722 -91 
Q 1428 -91 1123 -41 
Q 819 9 494 109 
L 494 744 
Q 775 591 1075 516 
Q 1375 441 1709 441 
Q 2250 441 2565 725 
Q 2881 1009 2881 1497 
Q 2881 1984 2565 2268 
Q 2250 2553 1709 2553 
Q 1456 2553 1204 2497 
Q 953 2441 691 2322 
L 691 4666 
z
" transform="scale(0.015625)"/>
       </defs>
       <use xlink:href="#DejaVuSans-15"/>
       <use xlink:href="#DejaVuSans-18" transform="translate(63.625 0)"/>
      </g>
     </g>
    </g>
    <g id="ytick_3">
     <g id="line2d_9">
      <g>
       <use xlink:href="#md04c617c74" x="51.562344" y="234.165705" style="stroke: #000000; stroke-width: 0.8"/>
      </g>
     </g>
     <g id="text_10">
      <!-- 50 -->
      <g transform="translate(31.837344 237.964533) scale(0.1 -0.1)">
       <use xlink:href="#DejaVuSans-18"/>
       <use xlink:href="#DejaVuSans-13" transform="translate(63.625 0)"/>
      </g>
     </g>
    </g>
    <g id="ytick_4">
     <g id="line2d_10">
      <g>
       <use xlink:href="#md04c617c74" x="51.562344" y="196.147458" style="stroke: #000000; stroke-width: 0.8"/>
      </g>
     </g>
     <g id="text_11">
      <!-- 75 -->
      <g transform="translate(31.837344 199.946286) scale(0.1 -0.1)">
       <defs>
        <path id="DejaVuSans-1a" d="M 525 4666 
L 3525 4666 
L 3525 4397 
L 1831 0 
L 1172 0 
L 2766 4134 
L 525 4134 
L 525 4666 
z
" transform="scale(0.015625)"/>
       </defs>
       <use xlink:href="#DejaVuSans-1a"/>
       <use xlink:href="#DejaVuSans-18" transform="translate(63.625 0)"/>
      </g>
     </g>
    </g>
    <g id="ytick_5">
     <g id="line2d_11">
      <g>
       <use xlink:href="#md04c617c74" x="51.562344" y="158.129211" style="stroke: #000000; stroke-width: 0.8"/>
      </g>
     </g>
     <g id="text_12">
      <!-- 100 -->
      <g transform="translate(25.474844 161.92804) scale(0.1 -0.1)">
       <use xlink:href="#DejaVuSans-14"/>
       <use xlink:href="#DejaVuSans-13" transform="translate(63.625 0)"/>
       <use xlink:href="#DejaVuSans-13" transform="translate(127.25 0)"/>
      </g>
     </g>
    </g>
    <g id="ytick_6">
     <g id="line2d_12">
      <g>
       <use xlink:href="#md04c617c74" x="51.562344" y="120.110965" style="stroke: #000000; stroke-width: 0.8"/>
      </g>
     </g>
     <g id="text_13">
      <!-- 125 -->
      <g transform="translate(25.474844 123.909793) scale(0.1 -0.1)">
       <use xlink:href="#DejaVuSans-14"/>
       <use xlink:href="#DejaVuSans-15" transform="translate(63.625 0)"/>
       <use xlink:href="#DejaVuSans-18" transform="translate(127.25 0)"/>
      </g>
     </g>
    </g>
    <g id="ytick_7">
     <g id="line2d_13">
      <g>
       <use xlink:href="#md04c617c74" x="51.562344" y="82.092718" style="stroke: #000000; stroke-width: 0.8"/>
      </g>
     </g>
     <g id="text_14">
      <!-- 150 -->
      <g transform="translate(25.474844 85.891546) scale(0.1 -0.1)">
       <use xlink:href="#DejaVuSans-14"/>
       <use xlink:href="#DejaVuSans-18" transform="translate(63.625 0)"/>
       <use xlink:href="#DejaVuSans-13" transform="translate(127.25 0)"/>
      </g>
     </g>
    </g>
    <g id="ytick_8">
     <g id="line2d_14">
      <g>
       <use xlink:href="#md04c617c74" x="51.562344" y="44.074472" style="stroke: #000000; stroke-width: 0.8"/>
      </g>
     </g>
     <g id="text_15">
      <!-- 175 -->
      <g transform="translate(25.474844 47.8733) scale(0.1 -0.1)">
       <use xlink:href="#DejaVuSans-14"/>
       <use xlink:href="#DejaVuSans-1a" transform="translate(63.625 0)"/>
       <use xlink:href="#DejaVuSans-18" transform="translate(127.25 0)"/>
      </g>
     </g>
    </g>
    <g id="text_16">
     <!-- Free Energy (kJ/mol) -->
     <g transform="translate(19.0725 222.588359) rotate(-90) scale(0.1 -0.1)">
      <defs>
       <path id="DejaVuSans-28" d="M 628 4666 
L 3578 4666 
L 3578 4134 
L 1259 4134 
L 1259 2753 
L 3481 2753 
L 3481 2222 
L 1259 2222 
L 1259 531 
L 3634 531 
L 3634 0 
L 628 0 
L 628 4666 
z
" transform="scale(0.015625)"/>
       <path id="DejaVuSans-4a" d="M 2906 1791 
Q 2906 2416 2648 2759 
Q 2391 3103 1925 3103 
Q 1463 3103 1205 2759 
Q 947 2416 947 1791 
Q 947 1169 1205 825 
Q 1463 481 1925 481 
Q 2391 481 2648 825 
Q 2906 1169 2906 1791 
z
M 3481 434 
Q 3481 -459 3084 -895 
Q 2688 -1331 1869 -1331 
Q 1566 -1331 1297 -1286 
Q 1028 -1241 775 -1147 
L 775 -588 
Q 1028 -725 1275 -790 
Q 1522 -856 1778 -856 
Q 2344 -856 2625 -561 
Q 2906 -266 2906 331 
L 2906 616 
Q 2728 306 2450 153 
Q 2172 0 1784 0 
Q 1141 0 747 490 
Q 353 981 353 1791 
Q 353 2603 747 3093 
Q 1141 3584 1784 3584 
Q 2172 3584 2450 3431 
Q 2728 3278 2906 2969 
L 2906 3500 
L 3481 3500 
L 3481 434 
z
" transform="scale(0.015625)"/>
       <path id="DejaVuSans-5c" d="M 2059 -325 
Q 1816 -950 1584 -1140 
Q 1353 -1331 966 -1331 
L 506 -1331 
L 506 -850 
L 844 -850 
Q 1081 -850 1212 -737 
Q 1344 -625 1503 -206 
L 1606 56 
L 191 3500 
L 800 3500 
L 1894 763 
L 2988 3500 
L 3597 3500 
L 2059 -325 
z
" transform="scale(0.015625)"/>
       <path id="DejaVuSans-b" d="M 1984 4856 
Q 1566 4138 1362 3434 
Q 1159 2731 1159 2009 
Q 1159 1288 1364 580 
Q 1569 -128 1984 -844 
L 1484 -844 
Q 1016 -109 783 600 
Q 550 1309 550 2009 
Q 550 2706 781 3412 
Q 1013 4119 1484 4856 
L 1984 4856 
z
" transform="scale(0.015625)"/>
       <path id="DejaVuSans-2d" d="M 628 4666 
L 1259 4666 
L 1259 325 
Q 1259 -519 939 -900 
Q 619 -1281 -91 -1281 
L -331 -1281 
L -331 -750 
L -134 -750 
Q 284 -750 456 -515 
Q 628 -281 628 325 
L 628 4666 
z
" transform="scale(0.015625)"/>
       <path id="DejaVuSans-12" d="M 1625 4666 
L 2156 4666 
L 531 -594 
L 0 -594 
L 1625 4666 
z
" transform="scale(0.015625)"/>
       <path id="DejaVuSans-50" d="M 3328 2828 
Q 3544 3216 3844 3400 
Q 4144 3584 4550 3584 
Q 5097 3584 5394 3201 
Q 5691 2819 5691 2113 
L 5691 0 
L 5113 0 
L 5113 2094 
Q 5113 2597 4934 2840 
Q 4756 3084 4391 3084 
Q 3944 3084 3684 2787 
Q 3425 2491 3425 1978 
L 3425 0 
L 2847 0 
L 2847 2094 
Q 2847 2600 2669 2842 
Q 2491 3084 2119 3084 
Q 1678 3084 1418 2786 
Q 1159 2488 1159 1978 
L 1159 0 
L 581 0 
L 581 3500 
L 1159 3500 
L 1159 2956 
Q 1356 3278 1631 3431 
Q 1906 3584 2284 3584 
Q 2666 3584 2933 3390 
Q 3200 3197 3328 2828 
z
" transform="scale(0.015625)"/>
       <path id="DejaVuSans-c" d="M 513 4856 
L 1013 4856 
Q 1481 4119 1714 3412 
Q 1947 2706 1947 2009 
Q 1947 1309 1714 600 
Q 1481 -109 1013 -844 
L 513 -844 
Q 928 -128 1133 580 
Q 1338 1288 1338 2009 
Q 1338 2731 1133 3434 
Q 928 4138 513 4856 
z
" transform="scale(0.015625)"/>
      </defs>
      <use xlink:href="#DejaVuSans-29"/>
      <use xlink:href="#DejaVuSans-55" transform="translate(50.234375 0)"/>
      <use xlink:href="#DejaVuSans-48" transform="translate(89.140625 0)"/>
      <use xlink:href="#DejaVuSans-48" transform="translate(150.671875 0)"/>
      <use xlink:href="#DejaVuSans-3" transform="translate(212.203125 0)"/>
      <use xlink:href="#DejaVuSans-28" transform="translate(243.984375 0)"/>
      <use xlink:href="#DejaVuSans-51" transform="translate(307.171875 0)"/>
      <use xlink:href="#DejaVuSans-48" transform="translate(370.546875 0)"/>
      <use xlink:href="#DejaVuSans-55" transform="translate(432.078125 0)"/>
      <use xlink:href="#DejaVuSans-4a" transform="translate(471.4375 0)"/>
      <use xlink:href="#DejaVuSans-5c" transform="translate(534.921875 0)"/>
      <use xlink:href="#DejaVuSans-3" transform="translate(594.109375 0)"/>
      <use xlink:href="#DejaVuSans-b" transform="translate(625.890625 0)"/>
      <use xlink:href="#DejaVuSans-4e" transform="translate(664.90625 0)"/>
      <use xlink:href="#DejaVuSans-2d" transform="translate(722.8125 0)"/>
      <use xlink:href="#DejaVuSans-12" transform="translate(752.3125 0)"/>
      <use xlink:href="#DejaVuSans-50" transform="translate(786 0)"/>
      <use xlink:href="#DejaVuSans-52" transform="translate(883.40625 0)"/>
      <use xlink:href="#DejaVuSans-4f" transform="translate(944.59375 0)"/>
      <use xlink:href="#DejaVuSans-c" transform="translate(972.375 0)"/>
     </g>
    </g>
   </g>
   <g id="line2d_15">
    <path d="M 56.569449 270.696558 
L 61.576555 278.905167 
L 66.58366 280.876333 
L 71.590766 282.083053 
L 76.597871 281.768392 
L 81.604977 282.345684 
L 86.612082 282.432982 
L 91.619188 282.33249 
L 96.626293 281.43025 
L 101.633399 279.941286 
L 106.640504 278.835905 
L 111.64761 278.452959 
L 116.654715 278.808039 
L 121.661821 278.945747 
L 126.668926 279.456984 
L 131.676032 279.606231 
L 136.683137 279.452985 
L 141.690243 278.98031 
L 146.697348 278.338331 
L 151.704454 277.245117 
L 156.711559 276.441364 
L 161.718665 275.579328 
L 166.72577 274.935533 
L 171.732876 273.814512 
L 176.739981 272.646769 
L 181.747087 274.266821 
L 186.754192 273.765042 
L 191.761298 276.270884 
L 196.768403 276.857708 
L 201.775509 277.737751 
L 206.782614 278.162128 
L 211.78972 277.985589 
L 216.796825 278.392628 
L 221.803931 278.963964 
L 226.811037 282.59338 
L 231.818142 289.207873 
L 236.825248 286.131355 
L 241.832353 290.598047 
L 246.839459 290.830918 
L 251.846564 292.030293 
L 256.85367 291.246455 
L 261.860775 291.459675 
L 266.867881 291.115845 
L 271.874986 290.503684 
L 276.882092 289.520284 
L 281.889197 288.629954 
L 286.896303 287.866882 
L 291.903408 287.919944 
L 296.910514 288.287532 
L 301.917619 291.308964 
L 306.924725 293.434993 
L 311.93183 296.764411 
L 316.938936 294.975258 
L 321.946041 295.413706 
L 326.953147 295.708863 
L 331.960252 296.51905 
L 336.967358 295.670608 
L 341.974463 295.065151 
L 346.981569 294.516871 
L 351.988674 293.314235 
L 356.99578 293.502622 
L 362.002885 293.25021 
L 367.009991 292.644261 
L 372.017096 292.542542 
L 377.024202 292.901658 
L 382.031307 291.852147 
L 387.038413 292.254724 
L 392.045518 293.391611 
L 397.052624 294.979952 
L 402.059729 296.09912 
L 407.066835 294.248867 
L 412.07394 295.414971 
L 417.081046 296.803885 
L 422.088151 298.674401 
L 427.095257 301.091237 
L 432.102362 302.511888 
L 437.109468 300.233852 
L 442.116573 298.735987 
L 447.123679 295.833112 
L 452.130784 291.156075 
L 457.13789 287.250712 
L 462.144995 280.524103 
L 467.152101 271.953845 
L 472.159206 265.332311 
L 477.166312 257.225648 
L 482.173417 251.952525 
L 487.180523 243.469502 
L 492.187628 232.126644 
L 497.194734 221.894322 
L 502.201839 210.746232 
L 507.208945 200.599537 
L 512.21605 188.704827 
L 517.223156 176.498125 
L 522.230261 165.178009 
L 527.237367 152.954871 
L 532.244472 140.874012 
L 537.251578 126.511106 
L 542.258683 113.554276 
L 547.265789 99.385127 
L 552.272894 72.305279 
L 557.28 39.419893 
" clip-path="url(#p3f503758cc)" style="fill: none; stroke: #1f77b4; stroke-width: 2; stroke-linecap: square"/>
   </g>
   <g id="line2d_16">
    <path d="M 56.569449 270.002619 
L 61.576555 278.211608 
L 66.58366 280.182918 
L 71.590766 281.383063 
L 76.597871 281.064334 
L 81.604977 281.642714 
L 86.612082 281.711724 
L 91.619188 281.599884 
L 96.626293 280.693711 
L 101.633399 279.207345 
L 106.640504 278.094682 
L 111.64761 277.680181 
L 116.654715 278.017994 
L 121.661821 278.145254 
L 126.668926 278.654781 
L 131.676032 278.800909 
L 136.683137 278.646576 
L 141.690243 278.177302 
L 146.697348 277.534634 
L 151.704454 276.446288 
L 156.711559 275.64531 
L 161.718665 274.789526 
L 166.72577 274.157595 
L 171.732876 273.078946 
L 176.739981 271.977173 
L 181.747087 273.781615 
L 186.754192 273.211129 
L 191.761298 275.792056 
L 196.768403 276.339396 
L 201.775509 277.242715 
L 206.782614 277.632393 
L 211.78972 277.478944 
L 216.796825 277.891166 
L 221.803931 278.472091 
L 226.811037 282.22056 
L 231.818142 288.952295 
L 236.825248 285.846983 
L 241.832353 290.351546 
L 246.839459 290.587216 
L 251.846564 291.78697 
L 256.85367 291.002547 
L 261.860775 291.208973 
L 266.867881 290.865595 
L 271.874986 290.24407 
L 276.882092 289.25337 
L 281.889197 288.371776 
L 286.896303 287.588645 
L 291.903408 287.65563 
L 296.910514 288.001078 
L 301.917619 290.964323 
L 306.924725 293.061505 
L 311.93183 296.38256 
L 316.938936 294.601548 
L 321.946041 295.036345 
L 326.953147 295.324182 
L 331.960252 296.124056 
L 336.967358 295.272925 
L 341.974463 294.672443 
L 346.981569 294.128725 
L 351.988674 292.935831 
L 356.99578 293.138242 
L 362.002885 292.924993 
L 367.009991 292.307247 
L 372.017096 292.202767 
L 377.024202 292.558952 
L 382.031307 291.577332 
L 387.038413 292.063718 
L 392.045518 293.375361 
L 397.052624 295.155741 
L 402.059729 296.335668 
L 407.066835 294.370565 
L 412.07394 295.533028 
L 417.081046 296.826971 
L 422.088151 298.700941 
L 427.095257 301.304674 
L 432.102362 302.804233 
L 437.109468 300.53064 
L 442.116573 299.061643 
L 447.123679 296.169935 
L 452.130784 291.497547 
L 457.13789 287.610449 
L 462.144995 280.886413 
L 467.152101 272.311542 
L 472.159206 265.691245 
L 477.166312 257.577118 
L 482.173417 252.318136 
L 487.180523 243.836481 
L 492.187628 232.493601 
L 497.194734 222.261603 
L 502.201839 211.113718 
L 507.208945 200.967833 
L 512.21605 189.073264 
L 517.223156 176.866998 
L 522.230261 165.547322 
L 527.237367 153.323977 
L 532.244472 141.243298 
L 537.251578 126.88122 
L 542.258683 113.926635 
L 547.265789 99.757224 
L 552.272894 72.677585 
L 557.28 39.792621 
" clip-path="url(#p3f503758cc)" style="fill: none; stroke: #ff7f0e; stroke-width: 2; stroke-linecap: square"/>
   </g>
   <g id="line2d_17">
    <path d="M 56.569449 267.972974 
L 61.576555 276.183055 
L 66.58366 278.153693 
L 71.590766 279.333223 
L 76.597871 279.001686 
L 81.604977 279.583133 
L 86.612082 279.601806 
L 91.619188 279.458435 
L 96.626293 278.541547 
L 101.633399 277.063276 
L 106.640504 275.937804 
L 111.64761 275.429502 
L 116.654715 275.721332 
L 121.661821 275.817522 
L 126.668926 276.321897 
L 131.676032 276.455606 
L 136.683137 276.29619 
L 141.690243 275.837309 
L 146.697348 275.19081 
L 151.704454 274.117374 
L 156.711559 273.322353 
L 161.718665 272.480789 
L 166.72577 271.88559 
L 171.732876 270.949416 
L 176.739981 270.054913 
L 181.747087 272.391974 
L 186.754192 271.625449 
L 191.761298 274.414257 
L 196.768403 274.852402 
L 201.775509 275.818972 
L 206.782614 276.114648 
L 211.78972 276.03284 
L 216.796825 276.459299 
L 221.803931 277.065636 
L 226.811037 281.131639 
L 231.818142 288.17821 
L 236.825248 284.99752 
L 241.832353 289.598802 
L 246.839459 289.840086 
L 251.846564 291.038683 
L 256.85367 290.25267 
L 261.860775 290.439851 
L 266.867881 290.096242 
L 271.874986 289.449163 
L 276.882092 288.440728 
L 281.889197 287.609791 
L 286.896303 286.768174 
L 291.903408 286.895442 
L 296.910514 287.191401 
L 301.917619 289.954352 
L 306.924725 291.938466 
L 311.93183 295.212725 
L 316.938936 293.459714 
L 321.946041 293.878796 
L 326.953147 294.140029 
L 331.960252 294.904349 
L 336.967358 294.043554 
L 341.974463 293.454387 
L 346.981569 292.922152 
L 351.988674 291.763709 
L 356.99578 292.013374 
L 362.002885 291.936127 
L 367.009991 291.288161 
L 372.017096 291.169505 
L 377.024202 291.516765 
L 382.031307 290.764976 
L 387.038413 291.512982 
L 392.045518 293.312681 
L 397.052624 295.561728 
L 402.059729 296.89705 
L 407.066835 294.670369 
L 412.07394 295.829146 
L 417.081046 296.882104 
L 422.088151 298.738283 
L 427.095257 301.785177 
L 432.102362 303.461514 
L 437.109468 301.197855 
L 442.116573 299.789533 
L 447.123679 296.922902 
L 452.130784 292.259802 
L 457.13789 288.413421 
L 462.144995 281.695292 
L 467.152101 273.109797 
L 472.159206 266.492395 
L 477.166312 258.360774 
L 482.173417 253.133199 
L 487.180523 244.654497 
L 492.187628 233.311517 
L 497.194734 223.080194 
L 502.201839 211.932658 
L 507.208945 201.78851 
L 512.21605 189.894029 
L 517.223156 177.688495 
L 522.230261 166.369605 
L 527.237367 154.145889 
L 532.244472 142.065366 
L 537.251578 127.704243 
L 542.258683 114.753525 
L 547.265789 100.583628 
L 552.272894 73.504249 
L 557.28 40.619818 
" clip-path="url(#p3f503758cc)" style="fill: none; stroke: #2ca02c; stroke-width: 2; stroke-linecap: square"/>
   </g>
   <g id="line2d_18">
    <path d="M 56.569449 262.836313 
L 61.576555 271.049171 
L 66.58366 273.015587 
L 71.590766 274.140684 
L 76.597871 273.775715 
L 81.604977 274.362238 
L 86.612082 274.269826 
L 91.619188 274.055074 
L 96.626293 273.115712 
L 101.633399 271.662378 
L 106.640504 270.584293 
L 111.64761 269.832678 
L 116.654715 270.073701 
L 121.661821 270.103785 
L 126.668926 270.599746 
L 131.676032 270.673231 
L 136.683137 270.484184 
L 141.690243 270.056658 
L 146.697348 269.384513 
L 151.704454 268.358134 
L 156.711559 267.570274 
L 161.718665 266.774372 
L 166.72577 266.310314 
L 171.732876 265.862989 
L 176.739981 265.525061 
L 181.747087 269.037605 
L 186.754192 267.845944 
L 191.761298 271.057511 
L 196.768403 271.274331 
L 201.775509 272.363698 
L 206.782614 272.480101 
L 211.78972 272.585934 
L 216.796825 273.041585 
L 221.803931 273.704427 
L 226.811037 278.362631 
L 231.818142 286.062017 
L 236.825248 282.733532 
L 241.832353 287.515373 
L 246.839459 287.762032 
L 251.846564 288.950128 
L 256.85367 288.163587 
L 261.860775 288.310944 
L 266.867881 287.959424 
L 271.874986 287.26059 
L 276.882092 286.233302 
L 281.889197 285.754982 
L 286.896303 284.824856 
L 291.903408 285.236935 
L 296.910514 285.582402 
L 301.917619 287.717926 
L 306.924725 289.234937 
L 311.93183 292.192104 
L 316.938936 290.558603 
L 321.946041 290.893558 
L 326.953147 291.043695 
L 331.960252 291.669873 
L 336.967358 290.775999 
L 341.974463 290.205225 
L 346.981569 289.696342 
L 351.988674 288.679773 
L 356.99578 289.118297 
L 362.002885 289.550227 
L 367.009991 288.906131 
L 372.017096 288.692171 
L 377.024202 289.019454 
L 382.031307 289.033202 
L 387.038413 290.414104 
L 392.045518 293.153293 
L 397.052624 296.112186 
L 402.059729 297.72979 
L 407.066835 295.148272 
L 412.07394 296.317395 
L 417.081046 296.978667 
L 422.088151 298.68377 
L 427.095257 302.4034 
L 432.102362 304.317497 
L 437.109468 302.070229 
L 442.116573 300.735337 
L 447.123679 297.905756 
L 452.130784 293.252847 
L 457.13789 289.467029 
L 462.144995 282.7582 
L 467.152101 274.155767 
L 472.159206 267.542389 
L 477.166312 259.381756 
L 482.173417 254.199624 
L 487.180523 245.724964 
L 492.187628 234.381867 
L 497.194734 224.151484 
L 502.201839 213.004391 
L 507.208945 202.862876 
L 512.21605 190.968647 
L 517.223156 178.764872 
L 522.230261 167.447768 
L 527.237367 155.222953 
L 532.244472 143.142905 
L 537.251578 128.784586 
L 542.258683 115.844661 
L 547.265789 101.673799 
L 552.272894 74.595296 
L 557.28 41.712629 
" clip-path="url(#p3f503758cc)" style="fill: none; stroke: #d62728; stroke-width: 2; stroke-linecap: square"/>
   </g>
   <g id="line2d_19">
    <path d="M 56.569449 255.522253 
L 61.576555 263.740175 
L 66.58366 265.683991 
L 71.590766 266.69292 
L 76.597871 266.257653 
L 81.604977 266.834772 
L 86.612082 266.585492 
L 91.619188 266.266427 
L 96.626293 265.30526 
L 101.633399 263.931124 
L 106.640504 263.483765 
L 111.64761 262.312333 
L 116.654715 262.975906 
L 121.661821 263.020932 
L 126.668926 263.527297 
L 131.676032 263.346693 
L 136.683137 263.001006 
L 141.690243 262.601433 
L 146.697348 261.763067 
L 151.704454 260.810339 
L 156.711559 259.953513 
L 161.718665 259.242015 
L 166.72577 259.109139 
L 171.732876 259.754943 
L 176.739981 260.169041 
L 181.747087 264.961296 
L 186.754192 263.312845 
L 191.761298 266.951017 
L 196.768403 266.944712 
L 201.775509 268.128013 
L 206.782614 268.092254 
L 211.78972 268.476013 
L 216.796825 268.97253 
L 221.803931 269.734578 
L 226.811037 274.889359 
L 231.818142 283.471433 
L 236.825248 279.969062 
L 241.832353 284.962674 
L 246.839459 285.196497 
L 251.846564 286.345609 
L 256.85367 285.565555 
L 261.860775 285.654103 
L 266.867881 285.266733 
L 271.874986 284.498792 
L 276.882092 283.553792 
L 281.889197 284.832884 
L 286.896303 284.539754 
L 291.903408 285.333748 
L 296.910514 286.447907 
L 301.917619 287.551758 
L 306.924725 288.023894 
L 311.93183 289.322257 
L 316.938936 288.267466 
L 321.946041 288.175904 
L 326.953147 287.791584 
L 331.960252 287.716402 
L 336.967358 286.627247 
L 341.974463 285.951598 
L 346.981569 285.405933 
L 351.988674 284.975808 
L 356.99578 286.160211 
L 362.002885 287.904419 
L 367.009991 287.818541 
L 372.017096 287.173848 
L 377.024202 287.440636 
L 382.031307 288.784648 
L 387.038413 290.064996 
L 392.045518 293.14869 
L 397.052624 296.411228 
L 402.059729 298.247876 
L 407.066835 295.496631 
L 412.07394 296.650205 
L 417.081046 296.996386 
L 422.088151 298.425583 
L 427.095257 302.650453 
L 432.102362 304.617763 
L 437.109468 302.409548 
L 442.116573 301.100762 
L 447.123679 298.29148 
L 452.130784 293.651014 
L 457.13789 289.914554 
L 462.144995 283.211986 
L 467.152101 274.595809 
L 472.159206 267.972371 
L 477.166312 259.786436 
L 482.173417 254.624681 
L 487.180523 246.150727 
L 492.187628 234.808069 
L 497.194734 224.577937 
L 502.201839 213.431343 
L 507.208945 203.291576 
L 512.21605 191.398868 
L 517.223156 179.199719 
L 522.230261 167.887017 
L 527.237367 155.658568 
L 532.244472 143.580694 
L 537.251578 129.232325 
L 542.258683 116.323996 
L 547.265789 102.151856 
L 552.272894 75.077305 
L 557.28 42.202415 
" clip-path="url(#p3f503758cc)" style="fill: none; stroke: #9467bd; stroke-width: 2; stroke-linecap: square"/>
   </g>
   <g id="line2d_20">
    <path d="M 56.569449 252.888538 
L 61.576555 261.111509 
L 66.58366 262.965757 
L 71.590766 263.756989 
L 76.597871 263.186325 
L 81.604977 263.662199 
L 86.612082 263.266282 
L 91.619188 262.85015 
L 96.626293 261.896499 
L 101.633399 260.713083 
L 106.640504 262.02838 
L 111.64761 260.615861 
L 116.654715 262.381467 
L 121.661821 262.561079 
L 126.668926 263.002809 
L 131.676032 262.53496 
L 136.683137 261.942187 
L 141.690243 261.37151 
L 146.697348 260.207615 
L 151.704454 259.126953 
L 156.711559 258.01956 
L 161.718665 257.239773 
L 166.72577 257.256005 
L 171.732876 258.561605 
L 176.739981 259.234114 
L 181.747087 264.525259 
L 186.754192 262.711563 
L 191.761298 266.525176 
L 196.768403 266.383995 
L 201.775509 267.546495 
L 206.782614 267.471896 
L 211.78972 268.066192 
L 216.796825 268.57401 
L 221.803931 269.444224 
L 226.811037 274.666812 
L 231.818142 283.848927 
L 236.825248 280.287153 
L 241.832353 285.4174 
L 246.839459 285.574082 
L 251.846564 286.638839 
L 256.85367 285.871536 
L 261.860775 285.870731 
L 266.867881 285.398581 
L 271.874986 284.564513 
L 276.882092 284.036272 
L 281.889197 288.482694 
L 286.896303 289.859584 
L 291.903408 290.158202 
L 296.910514 292.134795 
L 301.917619 292.80421 
L 306.924725 293.008968 
L 311.93183 292.75441 
L 316.938936 292.264281 
L 321.946041 291.706221 
L 326.953147 290.659703 
L 331.960252 289.384988 
L 336.967358 287.770145 
L 341.974463 286.510104 
L 346.981569 285.566624 
L 351.988674 285.863022 
L 356.99578 287.978065 
L 362.002885 290.478786 
L 367.009991 291.166185 
L 372.017096 290.110394 
L 377.024202 290.22413 
L 382.031307 291.908015 
L 387.038413 291.600746 
L 392.045518 293.623636 
L 397.052624 296.416567 
L 402.059729 298.197722 
L 407.066835 295.511514 
L 412.07394 296.508966 
L 417.081046 296.505331 
L 422.088151 297.796429 
L 427.095257 302.341661 
L 432.102362 304.089794 
L 437.109468 301.968515 
L 442.116573 300.641055 
L 447.123679 297.817618 
L 452.130784 293.206557 
L 457.13789 289.505803 
L 462.144995 282.802246 
L 467.152101 274.178718 
L 472.159206 267.496873 
L 477.166312 259.288205 
L 482.173417 254.065112 
L 487.180523 245.58072 
L 492.187628 234.241088 
L 497.194734 224.009467 
L 502.201839 212.864149 
L 507.208945 202.722897 
L 512.21605 190.837289 
L 517.223156 178.651385 
L 522.230261 167.351418 
L 527.237367 155.111179 
L 532.244472 143.041949 
L 537.251578 128.726827 
L 542.258683 115.908375 
L 547.265789 101.735941 
L 552.272894 74.676625 
L 557.28 41.831263 
" clip-path="url(#p3f503758cc)" style="fill: none; stroke: #8c564b; stroke-width: 2; stroke-linecap: square"/>
   </g>
   <g id="line2d_21">
    <path d="M 56.569449 259.385735 
L 61.576555 267.609811 
L 66.58366 269.222627 
L 71.590766 269.588369 
L 76.597871 268.716094 
L 81.604977 268.791831 
L 86.612082 268.179605 
L 91.619188 267.629921 
L 96.626293 266.663757 
L 101.633399 265.641564 
L 106.640504 267.844007 
L 111.64761 266.452638 
L 116.654715 268.804325 
L 121.661821 268.857473 
L 126.668926 269.024811 
L 131.676032 268.414094 
L 136.683137 267.591355 
L 141.690243 266.671428 
L 146.697348 265.227007 
L 151.704454 263.851301 
L 156.711559 262.482032 
L 161.718665 261.522026 
L 166.72577 261.33871 
L 171.732876 262.561908 
L 176.739981 263.265204 
L 181.747087 268.439669 
L 186.754192 266.763927 
L 191.761298 270.551134 
L 196.768403 270.233842 
L 201.775509 271.296677 
L 206.782614 271.216151 
L 211.78972 271.948738 
L 216.796825 272.386197 
L 221.803931 273.331694 
L 226.811037 278.243542 
L 231.818142 287.199131 
L 236.825248 283.855517 
L 241.832353 288.977715 
L 246.839459 288.903076 
L 251.846564 289.829997 
L 256.85367 289.078203 
L 261.860775 288.891604 
L 266.867881 288.207253 
L 271.874986 287.24742 
L 276.882092 287.26993 
L 281.889197 293.400996 
L 286.896303 295.19836 
L 291.903408 295.513413 
L 296.910514 297.570766 
L 301.917619 297.998312 
L 306.924725 298.097871 
L 311.93183 297.483877 
L 316.938936 296.85588 
L 321.946041 295.962424 
L 326.953147 294.576666 
L 331.960252 292.871231 
L 336.967358 291.021239 
L 341.974463 289.484159 
L 346.981569 288.323128 
L 351.988674 288.830539 
L 356.99578 291.112108 
L 362.002885 293.503593 
L 367.009991 294.155877 
L 372.017096 292.999934 
L 377.024202 292.838187 
L 382.031307 293.908131 
L 387.038413 292.531447 
L 392.045518 293.460532 
L 397.052624 295.377634 
L 402.059729 296.864856 
L 407.066835 294.563857 
L 412.07394 295.305119 
L 417.081046 294.582151 
L 422.088151 295.959044 
L 427.095257 300.744537 
L 432.102362 301.988253 
L 437.109468 300.070858 
L 442.116573 298.691295 
L 447.123679 295.808635 
L 452.130784 291.274284 
L 457.13789 287.628111 
L 462.144995 280.915249 
L 467.152101 272.283465 
L 472.159206 265.433356 
L 477.166312 257.174053 
L 482.173417 251.698231 
L 487.180523 243.173838 
L 492.187628 231.845172 
L 497.194734 221.608173 
L 502.201839 210.466682 
L 507.208945 200.315825 
L 512.21605 188.453972 
L 517.223156 176.305312 
L 522.230261 165.040427 
L 527.237367 152.76623 
L 532.244472 140.723395 
L 537.251578 126.504285 
L 542.258683 113.913396 
L 547.265789 99.743165 
L 552.272894 72.72739 
L 557.28 39.964433 
" clip-path="url(#p3f503758cc)" style="fill: none; stroke: #e377c2; stroke-width: 2; stroke-linecap: square"/>
   </g>
   <g id="patch_3">
    <path d="M 51.562344 317.877656 
L 51.562344 26.16 
" style="fill: none; stroke: #000000; stroke-width: 0.8; stroke-linejoin: miter; stroke-linecap: square"/>
   </g>
   <g id="patch_4">
    <path d="M 557.28 317.877656 
L 557.28 26.16 
" style="fill: none; stroke: #000000; stroke-width: 0.8; stroke-linejoin: miter; stroke-linecap: square"/>
   </g>
   <g id="patch_5">
    <path d="M 51.562344 317.877656 
L 557.28 317.877656 
" style="fill: none; stroke: #000000; stroke-width: 0.8; stroke-linejoin: miter; stroke-linecap: square"/>
   </g>
   <g id="patch_6">
    <path d="M 51.562344 26.16 
L 557.28 26.16 
" style="fill: none; stroke: #000000; stroke-width: 0.8; stroke-linejoin: miter; stroke-linecap: square"/>
   </g>
   <g id="text_17">
    <!-- 1D Free Energy Profile vs. pH -->
    <g transform="translate(217.148359 20.16) scale(0.12 -0.12)">
     <defs>
      <path id="DejaVuSans-27" d="M 1259 4147 
L 1259 519 
L 2022 519 
Q 2988 519 3436 956 
Q 3884 1394 3884 2338 
Q 3884 3275 3436 3711 
Q 2988 4147 2022 4147 
L 1259 4147 
z
M 628 4666 
L 1925 4666 
Q 3281 4666 3915 4102 
Q 4550 3538 4550 2338 
Q 4550 1131 3912 565 
Q 3275 0 1925 0 
L 628 0 
L 628 4666 
z
" transform="scale(0.015625)"/>
      <path id="DejaVuSans-33" d="M 1259 4147 
L 1259 2394 
L 2053 2394 
Q 2494 2394 2734 2622 
Q 2975 2850 2975 3272 
Q 2975 3691 2734 3919 
Q 2494 4147 2053 4147 
L 1259 4147 
z
M 628 4666 
L 2053 4666 
Q 2838 4666 3239 4311 
Q 3641 3956 3641 3272 
Q 3641 2581 3239 2228 
Q 2838 1875 2053 1875 
L 1259 1875 
L 1259 0 
L 628 0 
L 628 4666 
z
" transform="scale(0.015625)"/>
      <path id="DejaVuSans-13af" d="M 3431 3500 
L 3431 0 
L 2853 0 
L 2853 3053 
L 1275 3053 
L 1275 0 
L 697 0 
L 697 3053 
L 147 3053 
L 147 3500 
L 697 3500 
L 697 3744 
Q 697 4316 967 4589 
Q 1238 4863 1797 4863 
L 2375 4863 
L 2375 4384 
L 1825 4384 
Q 1516 4384 1395 4259 
Q 1275 4134 1275 3809 
L 1275 3500 
L 3431 3500 
z
M 2853 4856 
L 3431 4856 
L 3431 4128 
L 2853 4128 
L 2853 4856 
z
" transform="scale(0.015625)"/>
      <path id="DejaVuSans-59" d="M 191 3500 
L 800 3500 
L 1894 563 
L 2988 3500 
L 3597 3500 
L 2284 0 
L 1503 0 
L 191 3500 
z
" transform="scale(0.015625)"/>
      <path id="DejaVuSans-53" d="M 1159 525 
L 1159 -1331 
L 581 -1331 
L 581 3500 
L 1159 3500 
L 1159 2969 
Q 1341 3281 1617 3432 
Q 1894 3584 2278 3584 
Q 2916 3584 3314 3078 
Q 3713 2572 3713 1747 
Q 3713 922 3314 415 
Q 2916 -91 2278 -91 
Q 1894 -91 1617 61 
Q 1341 213 1159 525 
z
M 3116 1747 
Q 3116 2381 2855 2742 
Q 2594 3103 2138 3103 
Q 1681 3103 1420 2742 
Q 1159 2381 1159 1747 
Q 1159 1113 1420 752 
Q 1681 391 2138 391 
Q 2594 391 2855 752 
Q 3116 1113 3116 1747 
z
" transform="scale(0.015625)"/>
      <path id="DejaVuSans-2b" d="M 628 4666 
L 1259 4666 
L 1259 2753 
L 3553 2753 
L 3553 4666 
L 4184 4666 
L 4184 0 
L 3553 0 
L 3553 2222 
L 1259 2222 
L 1259 0 
L 628 0 
L 628 4666 
z
" transform="scale(0.015625)"/>
     </defs>
     <use xlink:href="#DejaVuSans-14"/>
     <use xlink:href="#DejaVuSans-27" transform="translate(63.625 0)"/>
     <use xlink:href="#DejaVuSans-3" transform="translate(140.625 0)"/>
     <use xlink:href="#DejaVuSans-29" transform="translate(172.40625 0)"/>
     <use xlink:href="#DejaVuSans-55" transform="translate(222.640625 0)"/>
     <use xlink:href="#DejaVuSans-48" transform="translate(261.546875 0)"/>
     <use xlink:href="#DejaVuSans-48" transform="translate(323.078125 0)"/>
     <use xlink:href="#DejaVuSans-3" transform="translate(384.609375 0)"/>
     <use xlink:href="#DejaVuSans-28" transform="translate(416.390625 0)"/>
     <use xlink:href="#DejaVuSans-51" transform="translate(479.578125 0)"/>
     <use xlink:href="#DejaVuSans-48" transform="translate(542.953125 0)"/>
     <use xlink:href="#DejaVuSans-55" transform="translate(604.484375 0)"/>
     <use xlink:href="#DejaVuSans-4a" transform="translate(643.84375 0)"/>
     <use xlink:href="#DejaVuSans-5c" transform="translate(707.328125 0)"/>
     <use xlink:href="#DejaVuSans-3" transform="translate(766.515625 0)"/>
     <use xlink:href="#DejaVuSans-33" transform="translate(798.296875 0)"/>
     <use xlink:href="#DejaVuSans-55" transform="translate(856.84375 0)"/>
     <use xlink:href="#DejaVuSans-52" transform="translate(895.75 0)"/>
     <use xlink:href="#DejaVuSans-13af" transform="translate(956.9375 0)"/>
     <use xlink:href="#DejaVuSans-4f" transform="translate(1019.921875 0)"/>
     <use xlink:href="#DejaVuSans-48" transform="translate(1047.703125 0)"/>
     <use xlink:href="#DejaVuSans-3" transform="translate(1109.234375 0)"/>
     <use xlink:href="#DejaVuSans-59" transform="translate(1141.015625 0)"/>
     <use xlink:href="#DejaVuSans-56" transform="translate(1200.203125 0)"/>
     <use xlink:href="#DejaVuSans-11" transform="translate(1252.296875 0)"/>
     <use xlink:href="#DejaVuSans-3" transform="translate(1284.078125 0)"/>
     <use xlink:href="#DejaVuSans-53" transform="translate(1315.859375 0)"/>
     <use xlink:href="#DejaVuSans-2b" transform="translate(1379.34375 0)"/>
    </g>
   </g>
   <g id="legend_1">
    <g id="patch_7">
     <path d="M 58.562344 154.16625 
L 106.465469 154.16625 
Q 108.465469 154.16625 108.465469 152.16625 
L 108.465469 33.16 
Q 108.465469 31.16 106.465469 31.16 
L 58.562344 31.16 
Q 56.562344 31.16 56.562344 33.16 
L 56.562344 152.16625 
Q 56.562344 154.16625 58.562344 154.16625 
z
" style="fill: #ffffff; opacity: 0.8; stroke: #cccccc; stroke-linejoin: miter"/>
    </g>
    <g id="text_18">
     <!-- pH -->
     <g transform="translate(75.579531 42.758438) scale(0.1 -0.1)">
      <use xlink:href="#DejaVuSans-53"/>
      <use xlink:href="#DejaVuSans-2b" transform="translate(63.484375 0)"/>
     </g>
    </g>
    <g id="line2d_22">
     <path d="M 60.562344 54.259219 
L 70.562344 54.259219 
L 80.562344 54.259219 
" style="fill: none; stroke: #1f77b4; stroke-width: 2; stroke-linecap: square"/>
    </g>
    <g id="text_19">
     <!-- 8.0 -->
     <g transform="translate(88.562344 57.759219) scale(0.1 -0.1)">
      <use xlink:href="#DejaVuSans-1b"/>
      <use xlink:href="#DejaVuSans-11" transform="translate(63.625 0)"/>
      <use xlink:href="#DejaVuSans-13" transform="translate(95.40625 0)"/>
     </g>
    </g>
    <g id="line2d_23">
     <path d="M 60.562344 69.26 
L 70.562344 69.26 
L 80.562344 69.26 
" style="fill: none; stroke: #ff7f0e; stroke-width: 2; stroke-linecap: square"/>
    </g>
    <g id="text_20">
     <!-- 7.5 -->
     <g transform="translate(88.562344 72.76) scale(0.1 -0.1)">
      <use xlink:href="#DejaVuSans-1a"/>
      <use xlink:href="#DejaVuSans-11" transform="translate(63.625 0)"/>
      <use xlink:href="#DejaVuSans-18" transform="translate(95.40625 0)"/>
     </g>
    </g>
    <g id="line2d_24">
     <path d="M 60.562344 84.260781 
L 70.562344 84.260781 
L 80.562344 84.260781 
" style="fill: none; stroke: #2ca02c; stroke-width: 2; stroke-linecap: square"/>
    </g>
    <g id="text_21">
     <!-- 7.0 -->
     <g transform="translate(88.562344 87.760781) scale(0.1 -0.1)">
      <use xlink:href="#DejaVuSans-1a"/>
      <use xlink:href="#DejaVuSans-11" transform="translate(63.625 0)"/>
      <use xlink:href="#DejaVuSans-13" transform="translate(95.40625 0)"/>
     </g>
    </g>
    <g id="line2d_25">
     <path d="M 60.562344 99.261563 
L 70.562344 99.261563 
L 80.562344 99.261563 
" style="fill: none; stroke: #d62728; stroke-width: 2; stroke-linecap: square"/>
    </g>
    <g id="text_22">
     <!-- 6.5 -->
     <g transform="translate(88.562344 102.761563) scale(0.1 -0.1)">
      <use xlink:href="#DejaVuSans-19"/>
      <use xlink:href="#DejaVuSans-11" transform="translate(63.625 0)"/>
      <use xlink:href="#DejaVuSans-18" transform="translate(95.40625 0)"/>
     </g>
    </g>
    <g id="line2d_26">
     <path d="M 60.562344 114.262344 
L 70.562344 114.262344 
L 80.562344 114.262344 
" style="fill: none; stroke: #9467bd; stroke-width: 2; stroke-linecap: square"/>
    </g>
    <g id="text_23">
     <!-- 6.0 -->
     <g transform="translate(88.562344 117.762344) scale(0.1 -0.1)">
      <use xlink:href="#DejaVuSans-19"/>
      <use xlink:href="#DejaVuSans-11" transform="translate(63.625 0)"/>
      <use xlink:href="#DejaVuSans-13" transform="translate(95.40625 0)"/>
     </g>
    </g>
    <g id="line2d_27">
     <path d="M 60.562344 129.263125 
L 70.562344 129.263125 
L 80.562344 129.263125 
" style="fill: none; stroke: #8c564b; stroke-width: 2; stroke-linecap: square"/>
    </g>
    <g id="text_24">
     <!-- 5.5 -->
     <g transform="translate(88.562344 132.763125) scale(0.1 -0.1)">
      <use xlink:href="#DejaVuSans-18"/>
      <use xlink:href="#DejaVuSans-11" transform="translate(63.625 0)"/>
      <use xlink:href="#DejaVuSans-18" transform="translate(95.40625 0)"/>
     </g>
    </g>
    <g id="line2d_28">
     <path d="M 60.562344 144.263906 
L 70.562344 144.263906 
L 80.562344 144.263906 
" style="fill: none; stroke: #e377c2; stroke-width: 2; stroke-linecap: square"/>
    </g>
    <g id="text_25">
     <!-- 5.0 -->
     <g transform="translate(88.562344 147.763906) scale(0.1 -0.1)">
      <use xlink:href="#DejaVuSans-18"/>
      <use xlink:href="#DejaVuSans-11" transform="translate(63.625 0)"/>
      <use xlink:href="#DejaVuSans-13" transform="translate(95.40625 0)"/>
     </g>
    </g>
   </g>
  </g>
 </g>
 <defs>
  <clipPath id="p3f503758cc">
   <rect x="51.562344" y="26.16" width="505.717656" height="291.717656"/>
  </clipPath>
 </defs>
</svg>
